<svg width="32" height="32" viewBox="0 0 32 32" fill="none" xmlns="http://www.w3.org/2000/svg">
<rect x="1" y="1" width="30" height="30" rx="4" fill="#1B1A17" stroke="#A35709" stroke-width="2"/>
<path d="M16 9C12.1331 9 9 12.1352 9 16C9 19.8648 12.1352 23 16 23C19.8669 23 23 19.8648 23 16C23 12.1352 19.8648 9 16 9ZM16 21.4473C12.9967 21.4473 10.5548 19.0055 10.5548 16.0021C10.5548 12.9988 12.9967 10.557 16 10.557C19.0033 10.557 21.4452 12.9988 21.4452 16.0021C21.4452 19.0055 19.0012 21.4473 16 21.4473Z" fill="#A35709"/>
<path d="M16.7806 12.8861H15.2236V16.3191L17.7867 18.8822L18.8863 17.7825L16.7806 15.6767V12.8861Z" fill="#A35709"/>
</svg>
