<svg width="158" height="56" viewBox="0 0 158 56" fill="none" xmlns="http://www.w3.org/2000/svg">
<line x1="48.5" y1="1.5" x2="109.5" y2="1.5" stroke="#FF8303" stroke-width="3" stroke-linecap="round"/>
<path d="M16.31 20.5455V38H14.2646L4.7532 24.2955H4.58274V38H2.46911V20.5455H4.51456L14.06 34.2841H14.2305V20.5455H16.31ZM25.5849 38.2727C24.4031 38.2727 23.3661 37.9915 22.4741 37.429C21.5877 36.8665 20.8945 36.0795 20.3945 35.0682C19.9002 34.0568 19.6531 32.875 19.6531 31.5227C19.6531 30.1591 19.9002 28.9687 20.3945 27.9517C20.8945 26.9347 21.5877 26.1449 22.4741 25.5824C23.3661 25.0199 24.4031 24.7386 25.5849 24.7386C26.7667 24.7386 27.8008 25.0199 28.6871 25.5824C29.5792 26.1449 30.2724 26.9347 30.7667 27.9517C31.2667 28.9687 31.5167 30.1591 31.5167 31.5227C31.5167 32.875 31.2667 34.0568 30.7667 35.0682C30.2724 36.0795 29.5792 36.8665 28.6871 37.429C27.8008 37.9915 26.7667 38.2727 25.5849 38.2727ZM25.5849 36.4659C26.4826 36.4659 27.2212 36.2358 27.8008 35.7756C28.3803 35.3153 28.8093 34.7102 29.0877 33.9602C29.3661 33.2102 29.5053 32.3977 29.5053 31.5227C29.5053 30.6477 29.3661 29.8324 29.0877 29.0767C28.8093 28.321 28.3803 27.7102 27.8008 27.2443C27.2212 26.7784 26.4826 26.5455 25.5849 26.5455C24.6871 26.5455 23.9485 26.7784 23.369 27.2443C22.7894 27.7102 22.3604 28.321 22.082 29.0767C21.8036 29.8324 21.6644 30.6477 21.6644 31.5227C21.6644 32.3977 21.8036 33.2102 22.082 33.9602C22.3604 34.7102 22.7894 35.3153 23.369 35.7756C23.9485 36.2358 24.6871 36.4659 25.5849 36.4659ZM43.3484 30.125V38H41.337V20.5455H43.3484V26.9545H43.5188C43.8256 26.2784 44.2859 25.7415 44.8995 25.3438C45.5188 24.9403 46.3427 24.7386 47.3711 24.7386C48.2631 24.7386 49.0444 24.9176 49.7148 25.2756C50.3853 25.6278 50.9052 26.1705 51.2745 26.9034C51.6495 27.6307 51.837 28.5568 51.837 29.6818V38H49.8256V29.8182C49.8256 28.7784 49.5558 27.9744 49.016 27.4062C48.4819 26.8324 47.7404 26.5455 46.7915 26.5455C46.1325 26.5455 45.5415 26.6847 45.0188 26.9631C44.5018 27.2415 44.0927 27.6477 43.7915 28.1818C43.4961 28.7159 43.3484 29.3636 43.3484 30.125ZM59.369 38.3068C58.5394 38.3068 57.7866 38.1506 57.1104 37.8381C56.4343 37.5199 55.8974 37.0625 55.4996 36.4659C55.1019 35.8636 54.9031 35.1364 54.9031 34.2841C54.9031 33.5341 55.0508 32.9261 55.3462 32.4602C55.6417 31.9886 56.0366 31.6193 56.5309 31.3523C57.0252 31.0852 57.5707 30.8864 58.1673 30.7557C58.7695 30.6193 59.3746 30.5114 59.9826 30.4318C60.7781 30.3295 61.4229 30.2528 61.9173 30.2017C62.4173 30.1449 62.7809 30.0511 63.0082 29.9205C63.2411 29.7898 63.3576 29.5625 63.3576 29.2386V29.1705C63.3576 28.3295 63.1275 27.6761 62.6673 27.2102C62.2127 26.7443 61.5224 26.5114 60.5962 26.5114C59.636 26.5114 58.8832 26.7216 58.3377 27.142C57.7923 27.5625 57.4087 28.0114 57.1871 28.4886L55.2781 27.8068C55.619 27.0114 56.0735 26.392 56.6417 25.9489C57.2156 25.5 57.8406 25.1875 58.5167 25.0114C59.1985 24.8295 59.869 24.7386 60.5281 24.7386C60.9485 24.7386 61.4315 24.7898 61.9769 24.892C62.5281 24.9886 63.0593 25.1903 63.5707 25.4972C64.0877 25.804 64.5167 26.267 64.8576 26.8864C65.1985 27.5057 65.369 28.3352 65.369 29.375V38H63.3576V36.2273H63.2553C63.119 36.5114 62.8917 36.8153 62.5735 37.1392C62.2553 37.4631 61.832 37.7386 61.3036 37.9659C60.7752 38.1932 60.1303 38.3068 59.369 38.3068ZM59.6758 36.5C60.4712 36.5 61.1417 36.3438 61.6871 36.0312C62.2383 35.7188 62.6531 35.3153 62.9315 34.821C63.2156 34.3267 63.3576 33.8068 63.3576 33.2614V31.4205C63.2724 31.5227 63.0849 31.6165 62.7951 31.7017C62.511 31.7812 62.1815 31.8523 61.8065 31.9148C61.4371 31.9716 61.0763 32.0227 60.7241 32.0682C60.3775 32.108 60.0962 32.142 59.8803 32.1705C59.3576 32.2386 58.869 32.3494 58.4144 32.5028C57.9656 32.6506 57.6019 32.875 57.3235 33.1761C57.0508 33.4716 56.9144 33.875 56.9144 34.3864C56.9144 35.0852 57.1729 35.6136 57.69 35.9716C58.2127 36.3239 58.8746 36.5 59.6758 36.5ZM69.8668 42.9091C69.5259 42.9091 69.2219 42.8807 68.9549 42.8239C68.6879 42.7727 68.5032 42.7216 68.4009 42.6705L68.9123 40.8977C69.4009 41.0227 69.8327 41.0682 70.2077 41.0341C70.5827 41 70.9151 40.8324 71.2049 40.5312C71.5004 40.2358 71.7702 39.7557 72.0146 39.0909L72.3896 38.0682L67.5487 24.9091H69.7305L73.3441 35.3409H73.4805L77.0941 24.9091H79.2759L73.7191 39.9091C73.4691 40.5852 73.1594 41.1449 72.7901 41.5881C72.4208 42.0369 71.9918 42.3693 71.5032 42.5852C71.0202 42.8011 70.4748 42.9091 69.8668 42.9091ZM94.3739 24.9091V26.6136H87.5898V24.9091H94.3739ZM89.5671 21.7727H91.5785V34.25C91.5785 34.8182 91.6609 35.2443 91.8256 35.5284C91.9961 35.8068 92.212 35.9943 92.4734 36.0909C92.7404 36.1818 93.0217 36.2273 93.3171 36.2273C93.5387 36.2273 93.7205 36.2159 93.8626 36.1932C94.0046 36.1648 94.1183 36.142 94.2035 36.125L94.6126 37.9318C94.4762 37.983 94.2859 38.0341 94.0415 38.0852C93.7972 38.142 93.4876 38.1705 93.1126 38.1705C92.5444 38.1705 91.9876 38.0483 91.4421 37.804C90.9023 37.5597 90.4535 37.1875 90.0955 36.6875C89.7433 36.1875 89.5671 35.5568 89.5671 34.7955V21.7727ZM101.252 38.3068C100.422 38.3068 99.6694 38.1506 98.9933 37.8381C98.3171 37.5199 97.7802 37.0625 97.3825 36.4659C96.9847 35.8636 96.7859 35.1364 96.7859 34.2841C96.7859 33.5341 96.9336 32.9261 97.229 32.4602C97.5245 31.9886 97.9194 31.6193 98.4137 31.3523C98.908 31.0852 99.4535 30.8864 100.05 30.7557C100.652 30.6193 101.257 30.5114 101.865 30.4318C102.661 30.3295 103.306 30.2528 103.8 30.2017C104.3 30.1449 104.664 30.0511 104.891 29.9205C105.124 29.7898 105.24 29.5625 105.24 29.2386V29.1705C105.24 28.3295 105.01 27.6761 104.55 27.2102C104.096 26.7443 103.405 26.5114 102.479 26.5114C101.519 26.5114 100.766 26.7216 100.221 27.142C99.6751 27.5625 99.2915 28.0114 99.07 28.4886L97.1609 27.8068C97.5018 27.0114 97.9563 26.392 98.5245 25.9489C99.0984 25.5 99.7234 25.1875 100.4 25.0114C101.081 24.8295 101.752 24.7386 102.411 24.7386C102.831 24.7386 103.314 24.7898 103.86 24.892C104.411 24.9886 104.942 25.1903 105.453 25.4972C105.971 25.804 106.4 26.267 106.74 26.8864C107.081 27.5057 107.252 28.3352 107.252 29.375V38H105.24V36.2273H105.138C105.002 36.5114 104.775 36.8153 104.456 37.1392C104.138 37.4631 103.715 37.7386 103.186 37.9659C102.658 38.1932 102.013 38.3068 101.252 38.3068ZM101.559 36.5C102.354 36.5 103.025 36.3438 103.57 36.0312C104.121 35.7188 104.536 35.3153 104.814 34.821C105.098 34.3267 105.24 33.8068 105.24 33.2614V31.4205C105.155 31.5227 104.968 31.6165 104.678 31.7017C104.394 31.7812 104.064 31.8523 103.689 31.9148C103.32 31.9716 102.959 32.0227 102.607 32.0682C102.26 32.108 101.979 32.142 101.763 32.1705C101.24 32.2386 100.752 32.3494 100.297 32.5028C99.8484 32.6506 99.4847 32.875 99.2063 33.1761C98.9336 33.4716 98.7972 33.875 98.7972 34.3864C98.7972 35.0852 99.0558 35.6136 99.5728 35.9716C100.096 36.3239 100.757 36.5 101.559 36.5ZM110.923 38V24.9091H112.866V26.8864H113.002C113.241 26.2386 113.673 25.7131 114.298 25.3097C114.923 24.9062 115.627 24.7045 116.412 24.7045C116.559 24.7045 116.744 24.7074 116.966 24.7131C117.187 24.7187 117.355 24.7273 117.468 24.7386V26.7841C117.4 26.767 117.244 26.7415 117 26.7074C116.761 26.6676 116.508 26.6477 116.241 26.6477C115.605 26.6477 115.037 26.7812 114.537 27.0483C114.042 27.3097 113.65 27.6733 113.36 28.1392C113.076 28.5994 112.934 29.125 112.934 29.7159V38H110.923ZM124.943 38.2727C123.681 38.2727 122.593 37.9943 121.679 37.4375C120.77 36.875 120.068 36.0909 119.574 35.0852C119.085 34.0739 118.841 32.8977 118.841 31.5568C118.841 30.2159 119.085 29.0341 119.574 28.0114C120.068 26.983 120.755 26.1818 121.636 25.608C122.522 25.0284 123.556 24.7386 124.738 24.7386C125.42 24.7386 126.093 24.8523 126.758 25.0795C127.423 25.3068 128.028 25.6761 128.574 26.1875C129.119 26.6932 129.554 27.3636 129.877 28.1989C130.201 29.0341 130.363 30.0625 130.363 31.2841V32.1364H120.272V30.3977H128.318C128.318 29.6591 128.17 29 127.875 28.4205C127.585 27.8409 127.17 27.3835 126.63 27.0483C126.096 26.7131 125.466 26.5455 124.738 26.5455C123.937 26.5455 123.244 26.7443 122.659 27.142C122.079 27.5341 121.633 28.0455 121.321 28.6761C121.008 29.3068 120.852 29.983 120.852 30.7045V31.8636C120.852 32.8523 121.022 33.6903 121.363 34.3778C121.71 35.0597 122.19 35.5795 122.804 35.9375C123.417 36.2898 124.13 36.4659 124.943 36.4659C125.471 36.4659 125.949 36.392 126.375 36.2443C126.806 36.0909 127.179 35.8636 127.491 35.5625C127.804 35.2557 128.045 34.875 128.216 34.4205L130.159 34.9659C129.954 35.625 129.61 36.2045 129.127 36.7045C128.645 37.1989 128.048 37.5852 127.338 37.8636C126.627 38.1364 125.829 38.2727 124.943 38.2727ZM137.275 38.3068C136.446 38.3068 135.693 38.1506 135.017 37.8381C134.341 37.5199 133.804 37.0625 133.406 36.4659C133.008 35.8636 132.809 35.1364 132.809 34.2841C132.809 33.5341 132.957 32.9261 133.252 32.4602C133.548 31.9886 133.943 31.6193 134.437 31.3523C134.931 31.0852 135.477 30.8864 136.074 30.7557C136.676 30.6193 137.281 30.5114 137.889 30.4318C138.684 30.3295 139.329 30.2528 139.824 30.2017C140.324 30.1449 140.687 30.0511 140.914 29.9205C141.147 29.7898 141.264 29.5625 141.264 29.2386V29.1705C141.264 28.3295 141.034 27.6761 140.574 27.2102C140.119 26.7443 139.429 26.5114 138.502 26.5114C137.542 26.5114 136.789 26.7216 136.244 27.142C135.699 27.5625 135.315 28.0114 135.093 28.4886L133.184 27.8068C133.525 27.0114 133.98 26.392 134.548 25.9489C135.122 25.5 135.747 25.1875 136.423 25.0114C137.105 24.8295 137.775 24.7386 138.434 24.7386C138.855 24.7386 139.338 24.7898 139.883 24.892C140.434 24.9886 140.966 25.1903 141.477 25.4972C141.994 25.804 142.423 26.267 142.764 26.8864C143.105 27.5057 143.275 28.3352 143.275 29.375V38H141.264V36.2273H141.162C141.025 36.5114 140.798 36.8153 140.48 37.1392C140.162 37.4631 139.738 37.7386 139.21 37.9659C138.681 38.1932 138.037 38.3068 137.275 38.3068ZM137.582 36.5C138.377 36.5 139.048 36.3438 139.593 36.0312C140.145 35.7188 140.559 35.3153 140.838 34.821C141.122 34.3267 141.264 33.8068 141.264 33.2614V31.4205C141.179 31.5227 140.991 31.6165 140.701 31.7017C140.417 31.7812 140.088 31.8523 139.713 31.9148C139.343 31.9716 138.983 32.0227 138.63 32.0682C138.284 32.108 138.002 32.142 137.787 32.1705C137.264 32.2386 136.775 32.3494 136.321 32.5028C135.872 32.6506 135.508 32.875 135.23 33.1761C134.957 33.4716 134.821 33.875 134.821 34.3864C134.821 35.0852 135.079 35.6136 135.596 35.9716C136.119 36.3239 136.781 36.5 137.582 36.5ZM156.219 27.8409L154.412 28.3523C154.299 28.0511 154.131 27.7585 153.909 27.4744C153.694 27.1847 153.398 26.946 153.023 26.7585C152.648 26.571 152.168 26.4773 151.583 26.4773C150.782 26.4773 150.114 26.6619 149.58 27.0312C149.051 27.3949 148.787 27.858 148.787 28.4205C148.787 28.9205 148.969 29.3153 149.333 29.6051C149.696 29.8949 150.265 30.1364 151.037 30.3295L152.98 30.8068C154.151 31.0909 155.023 31.5256 155.597 32.1108C156.171 32.6903 156.458 33.4375 156.458 34.3523C156.458 35.1023 156.242 35.7727 155.81 36.3636C155.384 36.9545 154.787 37.4205 154.02 37.7614C153.253 38.1023 152.361 38.2727 151.344 38.2727C150.009 38.2727 148.904 37.983 148.029 37.4034C147.154 36.8239 146.6 35.9773 146.367 34.8636L148.276 34.3864C148.458 35.0909 148.801 35.6193 149.307 35.9716C149.819 36.3239 150.486 36.5 151.31 36.5C152.248 36.5 152.992 36.3011 153.543 35.9034C154.1 35.5 154.378 35.017 154.378 34.4545C154.378 34 154.219 33.6193 153.901 33.3125C153.583 33 153.094 32.767 152.435 32.6136L150.253 32.1023C149.054 31.8182 148.174 31.3778 147.611 30.7812C147.054 30.179 146.776 29.4261 146.776 28.5227C146.776 27.7841 146.983 27.1307 147.398 26.5625C147.819 25.9943 148.39 25.5483 149.111 25.2244C149.838 24.9006 150.662 24.7386 151.583 24.7386C152.878 24.7386 153.895 25.0227 154.634 25.5909C155.378 26.1591 155.907 26.9091 156.219 27.8409Z" fill="white"/>
<line x1="48.5" y1="54.5" x2="109.5" y2="54.5" stroke="#FF8303" stroke-width="3" stroke-linecap="round"/>
</svg>
